<?xml version="1.0" encoding="UTF-8" standalone="no"?>
<!DOCTYPE svg PUBLIC "-//W3C//DTD SVG 1.1//EN" "http://www.w3.org/Graphics/SVG/1.1/DTD/svg11.dtd">
<svg width="100%" height="100%" viewBox="0 0 2550 3300" version="1.1" xmlns="http://www.w3.org/2000/svg" xmlns:xlink="http://www.w3.org/1999/xlink" xml:space="preserve" xmlns:serif="http://www.serif.com/" style="fill-rule:evenodd;clip-rule:evenodd;stroke-linejoin:round;stroke-miterlimit:2;">
    <g transform="matrix(0.75,0,0,0.75,0,0)">
        <g transform="matrix(5.55556,0,0,5.55556,0,-678.333)">
            <rect x="0" y="122.1" width="611.45" height="669.9" style="fill:rgb(10,61,98);"/>
        </g>
        <g transform="matrix(1,0,0,1,165.093,3231.23)">
            <text x="36.24px" y="764.765px" style="font-family:'Helvetica';font-size:77.333px;fill:rgb(10,61,98);">V<tspan x="83.111px 127.112px 145.285px 167.763px 211.764px 234.242px 273.901px " y="764.765px 764.765px 764.765px 764.765px 764.765px 764.765px 764.765px ">alta.ca</tspan></text>
            <text x="36.24px" y="823.432px" style="font-family:'Helvetica';font-size:33.333px;">I<tspan x="46.781px 66.6px 77.141px 96.96px 109.34px 138.388px 158.206px 168.748px 177.433px 197.252px 217.071px 231.703px 249.65px 269.468px 289.287px 299.828px 319.647px 328.333px 348.151px 367.97px 387.789px 399.627px 419.445px 439.264px 451.645px 471.463px 480.149px 499.968px 511.72px 537.073px 556.891px 574.838px 583.827px 603.645px 623.464px 634.005px 653.824px 662.51px 682.328px 702.147px 721.966px 736.598px 747.139px 759.519px 779.338px 808.385px 823.017px 840.964px 860.783px 880.601px 892.982px 910.929px 930.748px 948.694px 954.54px 974.359px 994.177px 1014px 1043.04px 1062.86px 1082.68px 1094.24px 1106.62px 1126.44px 1135.12px 1143.81px 1163.63px 1183.44px 1192.13px 1211.95px 1221.24px 1241.06px 1260.87px 1280.69px 1291.23px 1300.57px 1325.92px 1345.74px 1354.43px 1363.11px 1382.93px 1394.25px 1404.8px 1424.61px 1444.43px 1464.25px 1484.07px 1503.89px 1514.43px 1529.06px 1539.6px 1559.42px 1574.05px 1593.87px " y="823.432px 823.432px 823.432px 823.432px 823.432px 823.432px 823.432px 823.432px 823.432px 823.432px 823.432px 823.432px 823.432px 823.432px 823.432px 823.432px 823.432px 823.432px 823.432px 823.432px 823.432px 823.432px 823.432px 823.432px 823.432px 823.432px 823.432px 823.432px 823.432px 823.432px 823.432px 823.432px 823.432px 823.432px 823.432px 823.432px 823.432px 823.432px 823.432px 823.432px 823.432px 823.432px 823.432px 823.432px 823.432px 823.432px 823.432px 823.432px 823.432px 823.432px 823.432px 823.432px 823.432px 823.432px 823.432px 823.432px 823.432px 823.432px 823.432px 823.432px 823.432px 823.432px 823.432px 823.432px 823.432px 823.432px 823.432px 823.432px 823.432px 823.432px 823.432px 823.432px 823.432px 823.432px 823.432px 823.432px 823.432px 823.432px 823.432px 823.432px 823.432px 823.432px 823.432px 823.432px 823.432px 823.432px 823.432px 823.432px 823.432px 823.432px 823.432px 823.432px 823.432px 823.432px ">nformation contained herein was obtained from sources deemed reliable and, while thought to be</tspan></text>
            <text x="36.24px" y="868.765px" style="font-family:'Helvetica';font-size:33.333px;">c<tspan x="53.906px 73.444px 85.544px 97.644px 117.182px 134.848px 145.109px 155.37px 171.51px 191.048px 210.586px 228.252px 247.79px 263.457px 282.995px 302.533px 312.793px 332.256px 351.794px 371.332px 390.871px 410.409px 429.872px 447.538px 467.076px 479.176px 487.581px 497.842px 506.247px 525.785px 545.323px 555.584px 571.903px 592.678px 612.216px 620.622px 630.882px 650.42px 666.567px 686.105px 705.643px 725.181px 742.847px 759.277px 778.815px 798.353px 808.613px 828.076px 847.614px 867.152px 886.691px 898.79px 918.328px 937.866px 948.127px 967.665px 987.203px 1006.67px 1016.93px 1036.46px 1056px 1075.47px 1095px 1112.67px 1130.34px 1149.88px 1161.98px 1181.51px 1199.18px 1216.85px 1227.34px 1246.88px 1258.98px 1278.44px 1296.11px 1315.64px 1344.41px 1363.95px 1372.36px 1391.89px 1402.15px 1421.69px 1441.23px 1460.77px 1478.43px 1496.1px 1512.17px 1531.71px 1541.97px 1561.43px 1571.7px 1591.23px " y="868.765px 868.765px 868.765px 868.765px 868.765px 868.765px 868.765px 868.765px 868.765px 868.765px 868.765px 868.765px 868.765px 868.765px 868.765px 868.765px 868.765px 868.765px 868.765px 868.765px 868.765px 868.765px 868.765px 868.765px 868.765px 868.765px 868.765px 868.765px 868.765px 868.765px 868.765px 868.765px 868.765px 868.765px 868.765px 868.765px 868.765px 868.765px 868.765px 868.765px 868.765px 868.765px 868.765px 868.765px 868.765px 868.765px 868.765px 868.765px 868.765px 868.765px 868.765px 868.765px 868.765px 868.765px 868.765px 868.765px 868.765px 868.765px 868.765px 868.765px 868.765px 868.765px 868.765px 868.765px 868.765px 868.765px 868.765px 868.765px 868.765px 868.765px 868.765px 868.765px 868.765px 868.765px 868.765px 868.765px 868.765px 868.765px 868.765px 868.765px 868.765px 868.765px 868.765px 868.765px 868.765px 868.765px 868.765px 868.765px 868.765px 868.765px 868.765px 868.765px ">orrect, have not been verified. Valta does not guarantee the accuracy or completeness of the</tspan></text>
            <g transform="matrix(33.3333,0,0,33.3333,1603.7,914.099)">
            </g>
            <text x="36.24px" y="914.099px" style="font-family:'Helvetica';font-size:33.333px;">i<tspan x="44.857px 64.608px 75.081px 94.831px 107.143px 136.122px 155.872px 166.345px 174.963px 194.713px 214.463px 229.163px 248.914px 261.226px 280.976px 298.855px 318.605px 338.355px 348.828px 368.578px 388.329px 398.802px 404.683px 424.434px 444.184px 456.496px 467.871px 487.622px 505.5px 523.379px 543.129px 572.108px 591.858px 609.737px 612.62px 632.37px 652.121px 669.999px 677.077px 689.389px 709.139px 727.018px 746.768px 766.518px 786.269px 804.147px 812.765px 832.515px 841.132px 849.75px 858.367px 868.84px 886.719px 893.58px 913.33px 925.642px 937.018px 945.635px 954.253px 974.003px 993.753px 1002.37px 1010.99px 1019.61px 1030.08px 1047.96px 1054.31px 1064.78px 1084.53px 1096.84px 1108.22px 1127.97px 1147.72px 1165.6px 1172.46px 1192.21px 1204.52px 1216.83px 1236.59px 1248.9px 1266.78px 1278.15px 1297.9px 1310.21px 1321.59px 1341.34px 1370.32px 1378.93px 1396.81px 1414.69px 1423.31px 1443.06px 1462.81px 1480.69px 1484.04px 1494.51px 1514.26px 1534.01px 1546.33px 1566.08px 1574.69px 1594.44px " y="914.099px 914.099px 914.099px 914.099px 914.099px 914.099px 914.099px 914.099px 914.099px 914.099px 914.099px 914.099px 914.099px 914.099px 914.099px 914.099px 914.099px 914.099px 914.099px 914.099px 914.099px 914.099px 914.099px 914.099px 914.099px 914.099px 914.099px 914.099px 914.099px 914.099px 914.099px 914.099px 914.099px 914.099px 914.099px 914.099px 914.099px 914.099px 914.099px 914.099px 914.099px 914.099px 914.099px 914.099px 914.099px 914.099px 914.099px 914.099px 914.099px 914.099px 914.099px 914.099px 914.099px 914.099px 914.099px 914.099px 914.099px 914.099px 914.099px 914.099px 914.099px 914.099px 914.099px 914.099px 914.099px 914.099px 914.099px 914.099px 914.099px 914.099px 914.099px 914.099px 914.099px 914.099px 914.099px 914.099px 914.099px 914.099px 914.099px 914.099px 914.099px 914.099px 914.099px 914.099px 914.099px 914.099px 914.099px 914.099px 914.099px 914.099px 914.099px 914.099px 914.099px 914.099px 914.099px 914.099px 914.099px 914.099px 914.099px 914.099px 914.099px 914.099px ">nformation presented, nor assumes any responsibility or liability for any errors or omissions therein.</tspan></text>
        </g>
        <g transform="matrix(1,0,0,1,164,2627.14)">
            <text x="36px" y="616.858px" style="font-family:'Helvetica';font-size:56px;">V<tspan x="73.237px 108.397px 124.853px 144.426px 179.586px 194.771px 236.138px 258.801px 293.96px 329.119px 364.279px 386.942px 406.515px 438.53px 452.668px 489.905px 525.065px 541.521px 576.68px 611.84px 631.413px 647.869px 683.028px 718.188px 750.203px 763.395px 798.555px 818.128px 853.287px " y="616.858px 616.858px 616.858px 616.858px 616.858px 616.858px 616.858px 616.858px 616.858px 616.858px 616.858px 616.858px 616.858px 616.858px 616.858px 616.858px 616.858px 616.858px 616.858px 616.858px 616.858px 616.858px 616.858px 616.858px 616.858px 616.858px 616.858px 616.858px 616.858px ">alta Property Valuations Ltd.</tspan></text>
            <text x="36px" y="691.524px" style="font-family:'Helvetica';font-size:56px;">30<tspan x="98.108px 129.162px 144.63px 161.982px 193.036px 224.09px 255.144px 286.198px 303.55px 343.901px 356.252px 384.161px 415.215px 446.27px 464.827px 495.882px 513.233px 553.584px 584.638px 615.692px 646.746px 659.314px " y="691.524px 691.524px 691.524px 691.524px 691.524px 691.524px 691.524px 691.524px 691.524px 691.524px 691.524px 691.524px 691.524px 691.524px 691.524px 691.524px 691.524px 691.524px 691.524px 691.524px 691.524px 691.524px ">0, 4838 Richard Road S</tspan>W</text>
            <text x="36px" y="767.524px" style="font-family:'Helvetica';font-size:56px;">C<tspan x="75.554px 105.811px 117.365px 147.623px 177.88px 195.641px 218.625px 233.296px 256.086px 292.55px 329.014px 342.701px 376.021px 406.278px 442.742px 449.526px 479.784px 510.041px " y="767.524px 767.524px 767.524px 767.524px 767.524px 767.524px 767.524px 767.524px 767.524px 767.524px 767.524px 767.524px 767.524px 767.524px 767.524px 767.524px 767.524px 767.524px ">algary, AB T3E 6L1</tspan></text>
            <g transform="matrix(56,0,0,56,595.718,843.524)">
            </g>
            <text x="36px" y="843.524px" style="font-family:'Helvetica';font-size:56px;">O<tspan x="80.933px 96.882px 113.815px 127.631px 157.006px 189.525px 206.458px 231.855px 264.374px 296.893px 329.413px 349.436px 381.955px 414.474px 446.993px 467.016px 499.535px 532.054px 564.573px " y="843.524px 843.524px 843.524px 843.524px 843.524px 843.524px 843.524px 843.524px 843.524px 843.524px 843.524px 843.524px 843.524px 843.524px 843.524px 843.524px 843.524px 843.524px 843.524px ">ffice: 587-801-5151</tspan></text>
        </g>
    </g>
</svg>
