<?xml version="1.0" encoding="UTF-8" standalone="no"?>
<!DOCTYPE svg PUBLIC "-//W3C//DTD SVG 1.1//EN" "http://www.w3.org/Graphics/SVG/1.1/DTD/svg11.dtd">
<svg width="100%" height="100%" viewBox="0 0 2550 3300" version="1.1" xmlns="http://www.w3.org/2000/svg" xmlns:xlink="http://www.w3.org/1999/xlink" xml:space="preserve" xmlns:serif="http://www.serif.com/" style="fill-rule:evenodd;clip-rule:evenodd;stroke-linejoin:round;stroke-miterlimit:2;">
    <g transform="matrix(0.75,0,0,0.75,0,0)">
        <g transform="matrix(5.55556,0,0,5.55556,0,12.4999)">
            <rect x="-6" y="-3" width="186" height="795.75" style="fill:rgb(10,61,98);"/>
        </g>
        <g transform="matrix(1,0,0,1,157.064,255.043)">
            <text x="71.066px" y="151.623px" style="font-family:'Helvetica';font-size:133.333px;fill:rgb(223,224,228);">T<tspan x="146.271px 228.963px 311.655px 349.816px 432.507px 467.293px 549.985px " y="151.623px 151.623px 151.623px 151.623px 151.623px 151.623px 151.623px ">able of</tspan></text>
            <g transform="matrix(133.333,0,0,133.333,638.531,332.957)">
            </g>
            <text x="34.478px" y="332.957px" style="font-family:'Helvetica';font-size:133.333px;fill:rgb(223,224,228);">C<tspan x="140.823px 225.033px 309.243px 356.344px 440.554px 524.764px 571.864px " y="332.957px 332.957px 332.957px 332.957px 332.957px 332.957px 332.957px ">ontents</tspan></text>
        </g>
        <g transform="matrix(1,0,0,1,904.187,260.362)">
            <g transform="matrix(66.6667,0,0,66.6667,1353.24,104.972)">
            </g>
            <text x="198.48px" y="104.972px" style="font-family:'Helvetica';font-size:66.667px;fill:rgb(10,61,98);">I<tspan x="221.879px 263.833px 287.231px 314.309px 356.262px 398.216px 440.17px 478.38px 501.779px 521.467px 563.42px 605.374px 635.493px 684.836px 702.813px 752.156px 790.366px 832.32px 870.53px 912.484px 935.883px 955.571px 993.781px 1035.73px 1038.75px 1088.1px 1130.05px 1190.46px 1250.87px 1292.83px 1319.9px " y="104.972px 104.972px 104.972px 104.972px 104.972px 104.972px 104.972px 104.972px 104.972px 104.972px 104.972px 104.972px 104.972px 104.972px 104.972px 104.972px 104.972px 104.972px 104.972px 104.972px 104.972px 104.972px 104.972px 104.972px 104.972px 104.972px 104.972px 104.972px 104.972px 104.972px 104.972px ">ntroduction &amp; Executive Summary</tspan></text>
        </g>
        <g transform="matrix(1,0,0,1,2570.16,260.362)">
            <g transform="matrix(66.6667,0,0,66.6667,601.257,104.972)">
            </g>
            <text x="564.18px" y="104.972px" style="font-family:'Helvetica';font-size:66.667px;fill:rgb(10,61,98);">1</text>
        </g>
        <g transform="matrix(1,0,0,1,953.159,332.236)">
            <g transform="matrix(56,0,0,56,689.753,113.098)">
            </g>
            <text x="209.23px" y="113.098px" style="font-family:'Helvetica';font-size:56px;fill:rgb(13,13,13);">P<tspan x="247.828px 267.723px 300.114px 332.505px 364.896px 384.791px 401.596px 430.843px 447.648px 492.453px 521.7px 554.091px 573.986px 603.232px 616.92px 649.311px " y="113.098px 113.098px 113.098px 113.098px 113.098px 113.098px 113.098px 113.098px 113.098px 113.098px 113.098px 113.098px 113.098px 113.098px 113.098px 113.098px ">roperty Overview</tspan></text>
        </g>
        <g transform="matrix(1,0,0,1,2574.86,332.236)">
            <g transform="matrix(56,0,0,56,596.357,113.098)">
            </g>
            <text x="565.212px" y="113.098px" style="font-family:'Helvetica';font-size:56px;fill:rgb(13,13,13);">1</text>
        </g>
        <g transform="matrix(1,0,0,1,953.159,425.169)">
            <g transform="matrix(56,0,0,56,543.718,133.498)">
            </g>
            <text x="209.23px" y="133.498px" style="font-family:'Helvetica';font-size:56px;fill:rgb(13,13,13);">P<tspan x="248.273px 281.11px 313.946px 331.196px 364.033px 396.869px 417.209px 450.045px 482.882px 515.718px " y="133.498px 133.498px 133.498px 133.498px 133.498px 133.498px 133.498px 133.498px 133.498px 133.498px ">hotographs</tspan></text>
        </g>
        <g transform="matrix(1,0,0,1,2574.86,425.169)">
            <g transform="matrix(56,0,0,56,596.357,133.498)">
            </g>
            <text x="565.212px" y="133.498px" style="font-family:'Helvetica';font-size:56px;fill:rgb(13,13,13);">4</text>
        </g>
        <g transform="matrix(1,0,0,1,953.159,518.102)">
            <g transform="matrix(56,0,0,56,352.316,153.898)">
            </g>
            <text x="209.23px" y="153.898px" style="font-family:'Helvetica';font-size:56px;fill:rgb(13,13,13);">M<tspan x="257.928px 291.122px 324.316px " y="153.898px 153.898px 153.898px ">aps</tspan></text>
        </g>
        <g transform="matrix(1,0,0,1,2574.86,518.102)">
            <g transform="matrix(56,0,0,56,596.357,153.898)">
            </g>
            <text x="565.212px" y="153.898px" style="font-family:'Helvetica';font-size:56px;fill:rgb(13,13,13);">7</text>
        </g>
        <g transform="matrix(1,0,0,1,953.159,611.036)">
            <g transform="matrix(56,0,0,56,936.743,174.298)">
            </g>
            <text x="209.23px" y="174.298px" style="font-family:'Helvetica';font-size:56px;fill:rgb(13,13,13);">I<tspan x="226.306px 258.968px 291.63px 324.293px 341.369px 355.328px 372.404px 386.363px 415.88px 448.543px 465.619px 479.578px 512.24px 544.902px 562.327px 594.989px 612.065px 630.507px 669.376px 698.894px 728.411px 742.37px 775.032px 807.694px 855.86px 888.522px 921.185px " y="174.298px 174.298px 174.298px 174.298px 174.298px 174.298px 174.298px 174.298px 174.298px 174.298px 174.298px 174.298px 174.298px 174.298px 174.298px 174.298px 174.298px 174.298px 174.298px 174.298px 174.298px 174.298px 174.298px 174.298px 174.298px 174.298px 174.298px ">dentification of Assignment</tspan></text>
        </g>
        <g transform="matrix(1,0,0,1,2548.81,611.036)">
            <g transform="matrix(56,0,0,56,622.402,174.298)">
            </g>
            <text x="559.494px" y="174.298px" style="font-family:'Helvetica';font-size:56px;fill:rgb(13,13,13);">1<tspan x="591.258px " y="174.298px ">0</tspan></text>
        </g>
        <g transform="matrix(1,0,0,1,904.187,756.735)">
            <g transform="matrix(66.6667,0,0,66.6667,783.679,213.932)">
            </g>
            <text x="198.48px" y="213.932px" style="font-family:'Helvetica';font-size:66.667px;fill:rgb(10,61,98);">P<tspan x="247.329px 273.913px 315.372px 356.832px 398.292px 424.876px 447.781px 485.497px 504.756px 553.605px 595.065px 636.525px 655.719px 693.435px 731.152px 750.346px " y="213.932px 213.932px 213.932px 213.932px 213.932px 213.932px 213.932px 213.932px 213.932px 213.932px 213.932px 213.932px 213.932px 213.932px 213.932px 213.932px ">roperty Analysis</tspan></text>
        </g>
        <g transform="matrix(1,0,0,1,2538.95,756.735)">
            <g transform="matrix(66.6667,0,0,66.6667,632.461,213.932)">
            </g>
            <text x="557.331px" y="213.932px" style="font-family:'Helvetica';font-size:66.667px;fill:rgb(10,61,98);">1<tspan x="595.384px " y="213.932px ">6</tspan></text>
        </g>
        <g transform="matrix(1,0,0,1,953.159,828.609)">
            <g transform="matrix(56,0,0,56,427.263,222.058)">
            </g>
            <text x="209.23px" y="222.058px" style="font-family:'Helvetica';font-size:56px;fill:rgb(13,13,13);">L<tspan x="241.276px 273.322px 302.224px 334.27px 350.73px 364.073px 396.119px " y="222.058px 222.058px 222.058px 222.058px 222.058px 222.058px 222.058px ">ocation</tspan></text>
        </g>
        <g transform="matrix(1,0,0,1,2548.81,828.609)">
            <g transform="matrix(56,0,0,56,622.402,222.058)">
            </g>
            <text x="559.494px" y="222.058px" style="font-family:'Helvetica';font-size:56px;fill:rgb(13,13,13);">1<tspan x="591.258px " y="222.058px ">6</tspan></text>
        </g>
        <g transform="matrix(1,0,0,1,953.159,921.542)">
            <g transform="matrix(56,0,0,56,493.669,242.458)">
            </g>
            <text x="209.23px" y="242.458px" style="font-family:'Helvetica';font-size:56px;fill:rgb(13,13,13);">S<tspan x="247.171px 260.201px 276.349px 308.083px 318.962px 359.993px 391.726px 407.874px 439.608px 452.638px 465.669px " y="242.458px 242.458px 242.458px 242.458px 242.458px 242.458px 242.458px 242.458px 242.458px 242.458px 242.458px ">ite Details</tspan></text>
        </g>
        <g transform="matrix(1,0,0,1,2548.81,921.542)">
            <g transform="matrix(56,0,0,56,622.402,242.458)">
            </g>
            <text x="559.494px" y="242.458px" style="font-family:'Helvetica';font-size:56px;fill:rgb(13,13,13);">1<tspan x="591.258px " y="242.458px ">7</tspan></text>
        </g>
        <g transform="matrix(1,0,0,1,953.159,1014.48)">
            <g transform="matrix(56,0,0,56,976.661,262.858)">
            </g>
            <text x="209.23px" y="262.858px" style="font-family:'Helvetica';font-size:56px;fill:rgb(13,13,13);">P<tspan x="247.397px 266.861px 298.82px 330.78px 362.74px 382.204px 398.578px 427.393px 448.893px 477.708px 509.668px 538.484px 570.443px 599.259px 611.73px 649.897px 664.332px 702.498px 731.314px 760.129px 792.089px 820.904px 849.719px 897.183px 929.143px 961.103px " y="262.858px 262.858px 262.858px 262.858px 262.858px 262.858px 262.858px 262.858px 262.858px 262.858px 262.858px 262.858px 262.858px 262.858px 262.858px 262.858px 262.858px 262.858px 262.858px 262.858px 262.858px 262.858px 262.858px 262.858px 262.858px 262.858px ">roperty Taxes &amp; Assessment</tspan></text>
        </g>
        <g transform="matrix(1,0,0,1,2548.81,1014.48)">
            <g transform="matrix(56,0,0,56,622.402,262.858)">
            </g>
            <text x="559.494px" y="262.858px" style="font-family:'Helvetica';font-size:56px;fill:rgb(13,13,13);">2<tspan x="591.258px " y="262.858px ">0</tspan></text>
        </g>
        <g transform="matrix(1,0,0,1,953.159,1108.5)">
            <g transform="matrix(56,0,0,56,743.737,283.498)">
            </g>
            <text x="209.23px" y="283.498px" style="font-family:'Helvetica';font-size:56px;fill:rgb(13,13,13);">L<tspan x="241.236px 273.241px 305.247px 337.252px 351.554px 392.856px 421.718px 453.723px 464.092px 502.304px 519.752px 557.965px 571.267px 603.273px 635.279px 667.284px 680.587px 712.592px " y="283.498px 283.498px 283.498px 283.498px 283.498px 283.498px 283.498px 283.498px 283.498px 283.498px 283.498px 283.498px 283.498px 283.498px 283.498px 283.498px 283.498px 283.498px ">and Use &amp; Planning</tspan></text>
        </g>
        <g transform="matrix(1,0,0,1,2548.81,1108.5)">
            <g transform="matrix(56,0,0,56,622.402,283.498)">
            </g>
            <text x="559.494px" y="283.498px" style="font-family:'Helvetica';font-size:56px;fill:rgb(13,13,13);">2<tspan x="591.258px " y="283.498px ">1</tspan></text>
        </g>
        <g transform="matrix(1,0,0,1,953.159,1201.44)">
            <g transform="matrix(56,0,0,56,1064.06,303.898)">
            </g>
            <text x="209.23px" y="303.898px" style="font-family:'Helvetica';font-size:56px;fill:rgb(13,13,13);">D<tspan x="251.731px 284.935px 314.994px 345.053px 365.761px 380.262px 413.465px 431.083px 445.584px 478.788px 511.992px 520.444px 553.648px 571.266px 589.027px 606.645px 639.849px 673.053px 686.619px 704.237px 752.944px 786.148px 806.856px 840.06px 870.119px 903.323px 952.031px 985.235px 1018.44px 1036.06px " y="303.898px 303.898px 303.898px 303.898px 303.898px 303.898px 303.898px 303.898px 303.898px 303.898px 303.898px 303.898px 303.898px 303.898px 303.898px 303.898px 303.898px 303.898px 303.898px 303.898px 303.898px 303.898px 303.898px 303.898px 303.898px 303.898px 303.898px 303.898px 303.898px 303.898px ">escription of the Improvements</tspan></text>
        </g>
        <g transform="matrix(1,0,0,1,2548.81,1201.44)">
            <g transform="matrix(56,0,0,56,622.402,303.898)">
            </g>
            <text x="559.494px" y="303.898px" style="font-family:'Helvetica';font-size:56px;fill:rgb(13,13,13);">2<tspan x="591.258px " y="303.898px ">3</tspan></text>
        </g>
        <g transform="matrix(1,0,0,1,953.159,1294.37)">
            <g transform="matrix(56,0,0,56,742.032,324.298)">
            </g>
            <text x="209.23px" y="324.298px" style="font-family:'Helvetica';font-size:56px;fill:rgb(13,13,13);">E<tspan x="247.369px 276.157px 308.09px 340.022px 371.954px 419.391px 432.62px 461.408px 474.351px 518.697px 547.485px 579.417px 598.854px 627.642px 640.871px 672.803px 714.032px " y="324.298px 324.298px 324.298px 324.298px 324.298px 324.298px 324.298px 324.298px 324.298px 324.298px 324.298px 324.298px 324.298px 324.298px 324.298px 324.298px 324.298px ">conomic Overviews</tspan></text>
        </g>
        <g transform="matrix(1,0,0,1,2548.81,1294.37)">
            <g transform="matrix(56,0,0,56,622.402,324.298)">
            </g>
            <text x="559.494px" y="324.298px" style="font-family:'Helvetica';font-size:56px;fill:rgb(13,13,13);">2<tspan x="591.258px " y="324.298px ">6</tspan></text>
        </g>
        <g transform="matrix(1,0,0,1,953.159,1387.3)">
            <g transform="matrix(56,0,0,56,981.482,344.698)">
            </g>
            <text x="209.23px" y="344.698px" style="font-family:'Helvetica';font-size:56px;fill:rgb(13,13,13);">M<tspan x="257.206px 289.678px 303.447px 320.334px 334.103px 354.079px 389.614px 422.086px 470.062px 483.831px 497.6px 526.928px 540.91px 588.886px 621.358px 641.334px 670.662px 703.134px 720.021px 738.809px 783.696px 813.023px 845.495px 865.472px 894.799px 908.568px 941.041px " y="344.698px 344.698px 344.698px 344.698px 344.698px 344.698px 344.698px 344.698px 344.698px 344.698px 344.698px 344.698px 344.698px 344.698px 344.698px 344.698px 344.698px 344.698px 344.698px 344.698px 344.698px 344.698px 344.698px 344.698px 344.698px 344.698px 344.698px ">ulti-Family Market Overview</tspan></text>
        </g>
        <g transform="matrix(1,0,0,1,2548.81,1387.3)">
            <g transform="matrix(56,0,0,56,622.402,344.698)">
            </g>
            <text x="559.494px" y="344.698px" style="font-family:'Helvetica';font-size:56px;fill:rgb(13,13,13);">2<tspan x="591.258px " y="344.698px ">8</tspan></text>
        </g>
        <g transform="matrix(1,0,0,1,953.159,1480.24)">
            <g transform="matrix(56,0,0,56,704.211,365.098)">
            </g>
            <text x="209.23px" y="365.098px" style="font-family:'Helvetica';font-size:56px;fill:rgb(13,13,13);">H<tspan x="250.375px 263.52px 295.367px 327.215px 359.063px 387.767px 404.028px 422.717px 460.771px 475.51px 513.565px 545.413px 574.116px 590.378px 603.218px 644.363px 673.066px " y="365.098px 365.098px 365.098px 365.098px 365.098px 365.098px 365.098px 365.098px 365.098px 365.098px 365.098px 365.098px 365.098px 365.098px 365.098px 365.098px 365.098px ">ighest &amp; Best Use</tspan></text>
        </g>
        <g transform="matrix(1,0,0,1,2548.81,1480.24)">
            <g transform="matrix(56,0,0,56,622.402,365.098)">
            </g>
            <text x="559.494px" y="365.098px" style="font-family:'Helvetica';font-size:56px;fill:rgb(13,13,13);">3<tspan x="591.258px " y="365.098px ">0</tspan></text>
        </g>
        <g transform="matrix(1,0,0,1,953.159,1573.17)">
            <g transform="matrix(56,0,0,56,807.719,385.498)">
            </g>
            <text x="209.23px" y="385.498px" style="font-family:'Helvetica';font-size:56px;fill:rgb(13,13,13);">V<tspan x="244.369px 277.43px 291.788px 324.849px 357.91px 375.385px 389.743px 422.804px 455.865px 467.894px 516.459px 549.52px 566.995px 600.056px 633.117px 666.178px 699.239px 713.597px 746.658px 779.719px " y="385.498px 385.498px 385.498px 385.498px 385.498px 385.498px 385.498px 385.498px 385.498px 385.498px 385.498px 385.498px 385.498px 385.498px 385.498px 385.498px 385.498px 385.498px 385.498px 385.498px ">aluation Methodology</tspan></text>
        </g>
        <g transform="matrix(1,0,0,1,2548.81,1573.17)">
            <g transform="matrix(56,0,0,56,622.402,385.498)">
            </g>
            <text x="559.494px" y="385.498px" style="font-family:'Helvetica';font-size:56px;fill:rgb(13,13,13);">3<tspan x="591.258px " y="385.498px ">2</tspan></text>
        </g>
        <g transform="matrix(1,0,0,1,953.159,1666.1)">
            <g transform="matrix(56,0,0,56,663.416,405.898)">
            </g>
            <text x="209.23px" y="405.898px" style="font-family:'Helvetica';font-size:56px;fill:rgb(13,13,13);">I<tspan x="226.098px 258.551px 287.86px 320.314px 368.271px 400.725px 414.53px 453.191px 485.645px 518.098px 538.056px 570.509px 602.963px 632.272px " y="405.898px 405.898px 405.898px 405.898px 405.898px 405.898px 405.898px 405.898px 405.898px 405.898px 405.898px 405.898px 405.898px 405.898px ">ncome Approach</tspan></text>
        </g>
        <g transform="matrix(1,0,0,1,2548.81,1666.1)">
            <g transform="matrix(56,0,0,56,622.402,405.898)">
            </g>
            <text x="559.494px" y="405.898px" style="font-family:'Helvetica';font-size:56px;fill:rgb(13,13,13);">3<tspan x="591.258px " y="405.898px ">4</tspan></text>
        </g>
        <g transform="matrix(1,0,0,1,953.159,1759.04)">
            <g transform="matrix(56,0,0,56,1270.22,426.298)">
            </g>
            <text x="209.23px" y="426.298px" style="font-family:'Helvetica';font-size:56px;fill:rgb(13,13,13);">D<tspan x="251.334px 265.439px 285.75px 318.557px 348.22px 365.442px 378.148px 420.253px 453.06px 501.371px 534.179px 566.986px 587.298px 601.402px 631.065px 663.872px 696.68px 711.051px 750.065px 782.873px 815.68px 835.992px 868.799px 901.606px 931.269px 964.077px 981.298px 989.12px 1037.43px 1070.24px 1084.34px 1101.56px 1115.67px 1132.89px 1165.7px 1214.01px 1228.11px 1242.22px " y="426.298px 426.298px 426.298px 426.298px 426.298px 426.298px 426.298px 426.298px 426.298px 426.298px 426.298px 426.298px 426.298px 426.298px 426.298px 426.298px 426.298px 426.298px 426.298px 426.298px 426.298px 426.298px 426.298px 426.298px 426.298px 426.298px 426.298px 426.298px 426.298px 426.298px 426.298px 426.298px 426.298px 426.298px 426.298px 426.298px 426.298px 426.298px ">irect Comparison Approach: Multifamily</tspan></text>
        </g>
        <g transform="matrix(1,0,0,1,2548.81,1759.04)">
            <g transform="matrix(56,0,0,56,622.402,426.298)">
            </g>
            <text x="559.494px" y="426.298px" style="font-family:'Helvetica';font-size:56px;fill:rgb(13,13,13);">5<tspan x="591.258px " y="426.298px ">0</tspan></text>
        </g>
        <g transform="matrix(1,0,0,1,953.159,1851.97)">
            <g transform="matrix(56,0,0,56,794.176,446.698)">
            </g>
            <text x="209.23px" y="446.698px" style="font-family:'Helvetica';font-size:56px;fill:rgb(13,13,13);">R<tspan x="250.76px 282.993px 312.081px 344.314px 376.547px 405.635px 419.165px 432.695px 446.224px 478.457px 495.104px 508.634px 540.867px 573.1px 584.178px 616.411px 633.058px 650.725px 685.036px 717.269px 730.799px 763.032px " y="446.698px 446.698px 446.698px 446.698px 446.698px 446.698px 446.698px 446.698px 446.698px 446.698px 446.698px 446.698px 446.698px 446.698px 446.698px 446.698px 446.698px 446.698px 446.698px 446.698px 446.698px 446.698px ">econciliation of Value</tspan></text>
        </g>
        <g transform="matrix(1,0,0,1,2548.81,1851.97)">
            <g transform="matrix(56,0,0,56,622.402,446.698)">
            </g>
            <text x="559.494px" y="446.698px" style="font-family:'Helvetica';font-size:56px;fill:rgb(13,13,13);">5<tspan x="591.258px " y="446.698px ">9</tspan></text>
        </g>
        <g transform="matrix(1,0,0,1,953.159,1946)">
            <g transform="matrix(56,0,0,56,520.307,467.338)">
            </g>
            <text x="209.23px" y="467.338px" style="font-family:'Helvetica';font-size:56px;fill:rgb(13,13,13);">C<tspan x="250.956px 283.384px 303.317px 320.159px 333.885px 350.728px 364.453px 393.737px 426.166px 443.009px 456.734px 489.163px " y="467.338px 467.338px 467.338px 467.338px 467.338px 467.338px 467.338px 467.338px 467.338px 467.338px 467.338px 467.338px ">ertification</tspan></text>
        </g>
        <g transform="matrix(1,0,0,1,2548.81,1946)">
            <g transform="matrix(56,0,0,56,622.402,467.338)">
            </g>
            <text x="559.494px" y="467.338px" style="font-family:'Helvetica';font-size:56px;fill:rgb(13,13,13);">6<tspan x="591.258px " y="467.338px ">1</tspan></text>
        </g>
        <g transform="matrix(1,0,0,1,904.187,2091.7)">
            <g transform="matrix(66.6667,0,0,66.6667,581.553,506.972)">
            </g>
            <text x="198.48px" y="506.972px" style="font-family:'Helvetica';font-size:66.667px;fill:rgb(10,61,98);">A<tspan x="246.798px 287.727px 328.656px 369.585px 410.514px 451.442px 470.106px 507.291px 548.22px " y="506.972px 506.972px 506.972px 506.972px 506.972px 506.972px 506.972px 506.972px 506.972px ">ppendices</tspan></text>
        </g>
        <g transform="matrix(1,0,0,1,2538.95,2091.7)">
            <g transform="matrix(66.6667,0,0,66.6667,632.461,506.972)">
            </g>
            <text x="557.331px" y="506.972px" style="font-family:'Helvetica';font-size:66.667px;fill:rgb(10,61,98);">6<tspan x="595.384px " y="506.972px ">3</tspan></text>
        </g>
        <g transform="matrix(1,0,0,1,953.159,2163.57)">
            <g transform="matrix(56,0,0,56,1065.52,515.098)">
            </g>
            <text x="209.23px" y="515.098px" style="font-family:'Helvetica';font-size:56px;fill:rgb(13,13,13);">C<tspan x="251.364px 284.202px 317.039px 334.29px 348.424px 381.262px 414.099px 446.936px 479.774px 497.025px 509.44px 548.485px 566.206px 599.044px 613.178px 661.519px 675.653px 692.905px 707.039px 739.876px 772.713px 785.683px 827.817px 860.654px 893.492px 926.329px 940.463px 957.715px 971.849px 1004.69px 1037.52px " y="515.098px 515.098px 515.098px 515.098px 515.098px 515.098px 515.098px 515.098px 515.098px 515.098px 515.098px 515.098px 515.098px 515.098px 515.098px 515.098px 515.098px 515.098px 515.098px 515.098px 515.098px 515.098px 515.098px 515.098px 515.098px 515.098px 515.098px 515.098px 515.098px 515.098px 515.098px ">ontingent &amp; Limiting Conditions</tspan></text>
        </g>
        <g transform="matrix(1,0,0,1,2548.81,2163.57)">
            <g transform="matrix(56,0,0,56,622.402,515.098)">
            </g>
            <text x="559.494px" y="515.098px" style="font-family:'Helvetica';font-size:56px;fill:rgb(13,13,13);">6<tspan x="591.258px " y="515.098px ">3</tspan></text>
        </g>
        <g transform="matrix(1,0,0,1,953.159,2256.5)">
            <g transform="matrix(56,0,0,56,708.167,535.498)">
            </g>
            <text x="209.23px" y="535.498px" style="font-family:'Helvetica';font-size:56px;fill:rgb(13,13,13);">D<tspan x="252.055px 285.584px 303.526px 318.351px 351.88px 366.705px 384.647px 399.473px 433.001px 466.53px 477.761px 511.29px 529.232px 546.19px 576.574px 610.102px 631.135px 680.167px " y="535.498px 535.498px 535.498px 535.498px 535.498px 535.498px 535.498px 535.498px 535.498px 535.498px 535.498px 535.498px 535.498px 535.498px 535.498px 535.498px 535.498px 535.498px ">efinition of Terms</tspan></text>
        </g>
        <g transform="matrix(1,0,0,1,2548.81,2256.5)">
            <g transform="matrix(56,0,0,56,622.402,535.498)">
            </g>
            <text x="559.494px" y="535.498px" style="font-family:'Helvetica';font-size:56px;fill:rgb(13,13,13);">6<tspan x="591.258px " y="535.498px ">6</tspan></text>
        </g>
        <g transform="matrix(1,0,0,1,953.159,2349.44)">
            <g transform="matrix(56,0,0,56,993.279,555.898)">
            </g>
            <text x="209.23px" y="555.898px" style="font-family:'Helvetica';font-size:56px;fill:rgb(13,13,13);">Q<tspan x="254.212px 286.78px 319.348px 333.213px 347.078px 364.061px 377.926px 407.349px 439.917px 456.899px 470.764px 503.333px 535.901px 565.324px 578.046px 610.614px 627.596px 645.461px 662.443px 695.011px 727.579px 742.222px 780.997px 813.565px 846.134px 866.206px 898.774px 912.639px 942.062px 974.63px " y="555.898px 555.898px 555.898px 555.898px 555.898px 555.898px 555.898px 555.898px 555.898px 555.898px 555.898px 555.898px 555.898px 555.898px 555.898px 555.898px 555.898px 555.898px 555.898px 555.898px 555.898px 555.898px 555.898px 555.898px 555.898px 555.898px 555.898px 555.898px 555.898px 555.898px ">ualifications of the Appraiser</tspan></text>
        </g>
        <g transform="matrix(1,0,0,1,2548.81,2349.44)">
            <g transform="matrix(56,0,0,56,622.402,555.898)">
            </g>
            <text x="559.494px" y="555.898px" style="font-family:'Helvetica';font-size:56px;fill:rgb(13,13,13);">7<tspan x="591.258px " y="555.898px ">0</tspan></text>
        </g>
    </g>
</svg>
